<svg version="1.1" xmlns="http://www.w3.org/2000/svg" viewBox="0 0 1383.8619791666667 1051.3984375" width="2767.7239583333335" height="2102.796875">
  <!-- svg-source:excalidraw -->
  
  <defs>
    <style>
      @font-face {
        font-family: "Virgil";
        src: url("https://excalidraw.com/FG_Virgil.woff2");
      }
      @font-face {
        font-family: "Cascadia";
        src: url("https://excalidraw.com/Cascadia.woff2");
      }
    </style>
  </defs>
  <rect x="0" y="0" width="1383.8619791666667" height="1051.3984375" fill="#ffffff"></rect><g><g transform="translate(339.27734375 46.94921875) rotate(0 -12.1796875 20.341796875)"><path d="M0 0 C-5.686084778619625 0.25476524195801176, -11.37216955723925 0.5095304839160235, -16.12890625 0.72265625 M0 0 C-4.814315608090328 0.21570559154679358, -9.628631216180656 0.43141118309358717, -16.12890625 0.72265625 M-16.12890625 0.72265625 C-19.74314946828963 1.8362338902297781, -23.35739268657926 2.9498115304595562, -30.58203125 5.17578125 M-16.12890625 0.72265625 C-21.25819868272083 2.3030328373788507, -26.387491115441662 3.8834094247577013, -30.58203125 5.17578125 M-30.58203125 5.17578125 C-31.611541030410443 5.938721533697025, -32.641050810820886 6.701661817394052, -35.39453125 8.7421875 M-30.58203125 5.17578125 C-31.70605041073286 6.008759735185959, -32.83006957146572 6.8417382203719175, -35.39453125 8.7421875 M-35.39453125 8.7421875 C-36.8046696253914 11.542522900019685, -38.214808000782796 14.34285830003937, -39.26171875 16.421875 M-35.39453125 8.7421875 C-36.80907063316772 11.551262679098727, -38.22361001633544 14.360337858197454, -39.26171875 16.421875 M-39.26171875 16.421875 C-38.86836435170844 22.24536394345705, -38.47500995341689 28.0688528869141, -38.26171875 31.2265625 M-39.26171875 16.421875 C-39.035440294723955 19.77185681834453, -38.80916183944792 23.121838636689063, -38.26171875 31.2265625 M-38.26171875 31.2265625 C-33.672457462202146 33.29376793976117, -29.083196174404293 35.36097337952233, -16.26953125 41.1328125 M-38.26171875 31.2265625 C-30.864103839066956 34.558774118850124, -23.466488928133913 37.89098573770025, -16.26953125 41.1328125 M-16.26953125 41.1328125 C-12.2107939575857 41.27460244907998, -8.152056665171402 41.41639239815995, -1.95703125 41.6328125 M-16.26953125 41.1328125 C-11.015525597141822 41.31635854900814, -5.761519944283645 41.49990459801629, -1.95703125 41.6328125 M-1.95703125 41.6328125 C1.7929373696650153 39.888888176560066, 5.5429059893300305 38.14496385312013, 10.44921875 35.86328125 M-1.95703125 41.6328125 C2.2894583674409663 39.65798089894197, 6.535947984881933 37.683149297883936, 10.44921875 35.86328125 M10.44921875 35.86328125 C11.816493484038801 30.606469706761345, 13.183768218077603 25.34965816352269, 14.90234375 18.7421875 M10.44921875 35.86328125 C11.971163071029878 30.01180584730355, 13.493107392059756 24.160330444607098, 14.90234375 18.7421875 M14.90234375 18.7421875 C13.819595908998963 15.151455867888217, 12.736848067997926 11.560724235776433, 11.765625 8.33984375 M14.90234375 18.7421875 C13.947408435549368 15.575322316460733, 12.992473121098737 12.408457132921466, 11.765625 8.33984375 M11.765625 8.33984375 C10.025333350879373 6.334798429453076, 8.285041701758747 4.329753108906152, 3.703125 -0.94921875 M11.765625 8.33984375 C9.093784085585503 5.261530913528259, 6.421943171171006 2.1832180770565177, 3.703125 -0.94921875 M3.703125 -0.94921875 C2.52958305565553 -0.6484057832534744, 1.3560411113110602 -0.34759281650694895, 0 0 M3.703125 -0.94921875 C2.6326846753581776 -0.6748337300759886, 1.5622443507163553 -0.40044871015197714, 0 0" stroke="#000000" stroke-width="1" fill="none"></path></g></g><g><g transform="translate(328.7890625 91.28515625) rotate(0 -12.126953125 38.638671875)"><path d="M0 0 C-0.19165973448070872 18.47362122893901, -0.38331946896141744 36.94724245787802, -0.50390625 48.5703125 M0 0 C-0.11529294053798367 11.112809477901465, -0.23058588107596734 22.22561895580293, -0.50390625 48.5703125 M-0.50390625 48.5703125 C-1.0085092492590775 48.5703125, -1.513112248518155 48.5703125, -2.23828125 48.5703125 M-0.50390625 48.5703125 C-0.8904876319269533 48.5703125, -1.2770690138539067 48.5703125, -2.23828125 48.5703125 M-2.23828125 48.5703125 C-10.77281867699203 59.69882838909943, -19.30735610398406 70.82734427819886, -24.25390625 77.27734375 M-2.23828125 48.5703125 C-8.15250529495097 56.28209967287876, -14.06672933990194 63.993886845757515, -24.25390625 77.27734375" stroke="#000000" stroke-width="1" fill="none"></path></g></g><g><g transform="translate(327.21875 141.38671875) rotate(0 10.873046875 13.826171875)"><path d="M0 0 C8.5738493008761 10.902511083330683, 17.1476986017522 21.805022166661367, 21.74609375 27.65234375 M0 0 C6.6360195446945 8.43836579071176, 13.272039089389 16.87673158142352, 21.74609375 27.65234375" stroke="#000000" stroke-width="1" fill="none"></path></g></g><g><g transform="translate(294.1015625 112.83203125) rotate(0 31.294921875 0.361328125)"><path d="M0 0 C16.904292447878472 0.19517531691053594, 33.808584895756944 0.3903506338210719, 62.58984375 0.72265625 M0 0 C17.639656809511873 0.2036657623266365, 35.279313619023746 0.407331524653273, 62.58984375 0.72265625" stroke="#000000" stroke-width="1" fill="none"></path></g></g><g><g transform="translate(107 257.88671875) rotate(0 228.76953125000003 -1.390625)"><path d="M0 0 C115.57072762354437 -0.7025216261245077, 231.14145524708874 -1.4050432522490155, 457.5390625 -2.78125 M0 0 C129.52281446200868 -0.7873323990177596, 259.04562892401736 -1.5746647980355193, 457.5390625 -2.78125" stroke="#000000" stroke-width="1" fill="none"></path></g></g><g transform="translate(308.71875 10) rotate(0 16.5 10)"><text x="0" y="14" font-family="Virgil, Segoe UI Emoji" font-size="16px" fill="#000000" text-anchor="start" style="white-space: pre;" direction="ltr">user</text></g><g transform="translate(582.94140625 241.3203125) rotate(0 55.5 10)"><text x="0" y="14" font-family="Virgil, Segoe UI Emoji" font-size="16px" fill="#000000" text-anchor="start" style="white-space: pre;" direction="ltr">user interface</text></g><g><g transform="translate(277.5703125 138.04296875) rotate(0 -23.62109375 47.9375)"><path d="M0 0 C-15.460417308237083 31.375928759167437, -30.920834616474167 62.75185751833487, -47.2421875 95.875 M0 0 C-12.95889083160073 26.299240662378725, -25.91778166320146 52.59848132475745, -47.2421875 95.875" stroke="#000000" stroke-width="1" fill="none"></path></g><g transform="translate(277.5703125 138.04296875) rotate(0 -23.62109375 47.9375)"><path d="M-43.98572313449125 66.05226639229443 C-45.051429459799934 75.8120157021145, -46.117135785108616 85.57176501193456, -47.2421875 95.875 M-43.98572313449125 66.05226639229443 C-44.878996042517066 74.23286872198474, -45.77226895054288 82.41347105167506, -47.2421875 95.875" stroke="#000000" stroke-width="1" fill="none"></path></g><g transform="translate(277.5703125 138.04296875) rotate(0 -23.62109375 47.9375)"><path d="M-25.577907418571563 75.12267558673432 C-32.667731757070115 81.91405449028326, -39.75755609556867 88.70543339383221, -47.2421875 95.875 M-25.577907418571563 75.12267558673432 C-31.520583983251242 80.81519578541209, -37.46326054793092 86.50771598408987, -47.2421875 95.875" stroke="#000000" stroke-width="1" fill="none"></path></g></g><g transform="translate(120.12890625 151.9296875) rotate(0 44 10)"><text x="0" y="14" font-family="Virgil, Segoe UI Emoji" font-size="16px" fill="#000000" text-anchor="start" style="white-space: pre;" direction="ltr">user action</text></g><g><g transform="translate(437.23828125 229.17578125) rotate(0 -24.2265625 -47.306640625)"><path d="M0 0 C-18.701176835304068 -36.51734957496774, -37.402353670608136 -73.03469914993548, -48.453125 -94.61328125 M0 0 C-18.919191764331483 -36.943062215726606, -37.838383528662966 -73.88612443145321, -48.453125 -94.61328125" stroke="#000000" stroke-width="1" fill="none"></path></g><g transform="translate(437.23828125 229.17578125) rotate(0 -24.2265625 -47.306640625)"><path d="M-26.470500452141664 -74.19847735704289 C-34.95500891209332 -82.07786300369096, -43.43951737204497 -89.95724865033904, -48.453125 -94.61328125 M-26.470500452141664 -74.19847735704289 C-35.053919773480224 -82.16971945302899, -43.637339094818785 -90.14096154901509, -48.453125 -94.61328125" stroke="#000000" stroke-width="1" fill="none"></path></g><g transform="translate(437.23828125 229.17578125) rotate(0 -24.2265625 -47.306640625)"><path d="M-44.73584061651564 -64.84447548268203 C-46.17057970925022 -76.33417198482576, -47.6053188019848 -87.82386848696949, -48.453125 -94.61328125 M-44.73584061651564 -64.84447548268203 C-46.18730563747549 -76.46811678356872, -47.63877065843534 -88.09175808445542, -48.453125 -94.61328125" stroke="#000000" stroke-width="1" fill="none"></path></g></g><g transform="translate(437.44921875 166.60546875) rotate(0 44 10)"><text x="0" y="14" font-family="Virgil, Segoe UI Emoji" font-size="16px" fill="#000000" text-anchor="start" style="white-space: pre;" direction="ltr">updated UI</text></g><g><g transform="translate(216.19375630117526 262.4489330969827) rotate(0 5.587632837007305 43.77713643615914)"><path d="M0 0 C2.7945602196682175 21.894395638386584, 5.589120439336435 43.78879127677317, 11.17526567401461 87.55427287231828 M0 0 C3.966007742641678 31.072274632396585, 7.932015485283356 62.14454926479317, 11.17526567401461 87.55427287231828" stroke="#000000" stroke-width="1" fill="none"></path></g><g transform="translate(216.19375630117526 262.4489330969827) rotate(0 5.587632837007305 43.77713643615914)"><path d="M-2.572027947003253 60.88946613951931 C0.8657104479528628 67.55744257375221, 4.3034488429089786 74.22541900798511, 11.17526567401461 87.55427287231828 M-2.572027947003253 60.88946613951931 C2.30677086921665 70.3525816522205, 7.185569685436553 79.81569716492166, 11.17526567401461 87.55427287231828" stroke="#000000" stroke-width="1" fill="none"></path></g><g transform="translate(216.19375630117526 262.4489330969827) rotate(0 5.587632837007305 43.77713643615914)"><path d="M17.784035170238294 58.29125584150303 C16.131402930984443 65.60895778141692, 14.47877069173059 72.92665972133082, 11.17526567401461 87.55427287231828 M17.784035170238294 58.29125584150303 C15.438638491902196 68.67645432382028, 13.0932418135661 79.06165280613752, 11.17526567401461 87.55427287231828" stroke="#000000" stroke-width="1" fill="none"></path></g></g><g transform="translate(75.81640625 287.765625) rotate(0 46.5 20)"><text x="0" y="14" font-family="Virgil, Segoe UI Emoji" font-size="16px" fill="#000000" text-anchor="start" style="white-space: pre;" direction="ltr">LISTENERS</text><text x="0" y="34" font-family="Virgil, Segoe UI Emoji" font-size="16px" fill="#000000" text-anchor="start" style="white-space: pre;" direction="ltr"></text></g><g transform="translate(212.59821428571433 379.4916294642857) rotate(0 135.18945312499994 138.67968750000003)"><path d="M0 0 C81.63120229486483 0, 163.26240458972967 0, 270.37890624999994 0 M0 0 C103.21083750273573 0, 206.42167500547146 0, 270.37890624999994 0 M270.37890624999994 0 C270.37890624999994 90.39667101624218, 270.37890624999994 180.79334203248436, 270.37890624999994 277.359375 M270.37890624999994 0 C270.37890624999994 70.84733413184732, 270.37890624999994 141.69466826369464, 270.37890624999994 277.359375 M270.37890624999994 277.359375 C200.80438992774464 277.359375, 131.22987360548936 277.359375, 0 277.359375 M270.37890624999994 277.359375 C210.50910114573304 277.359375, 150.6392960414661 277.359375, 0 277.359375 M0 277.359375 C0 211.06588221135752, 0 144.77238942271507, 0 0 M0 277.359375 C0 183.8724257564478, 0 90.38547651289556, 0 0" stroke="#000000" stroke-width="1" fill="none"></path></g><g transform="translate(86.4341517857141 848.578125) rotate(0 60.20703125 64.44921875)"><path d="M61 0 C73.03739474743998 13.169115621130913, 85.07478949487995 26.338231242261827, 120.4140625 65 M61 0 C80.10086705557842 20.89667506935075, 99.20173411115684 41.7933501387015, 120.4140625 65 M120.4140625 65 C105.09719272498114 81.47293594870207, 89.78032294996228 97.94587189740415, 61 128.8984375 M120.4140625 65 C102.33632079478048 84.44218927113616, 84.25857908956095 103.88437854227232, 61 128.8984375 M61 128.8984375 C36.918744421843435 103.67295218061699, 12.83748884368687 78.44746686123398, 0 65 M61 128.8984375 C42.73450409537181 109.76504982019033, 24.469008190743622 90.63166214038066, 0 65 M0 65 C16.171923502441498 47.767622497398406, 32.343847004882996 30.535244994796813, 61 0 M0 65 C21.21805732185021 42.39059465704486, 42.43611464370042 19.781189314089715, 61 0" stroke="#000000" stroke-width="1" fill="none"></path></g><g transform="translate(112.6450892857141 900.03125) rotate(0 29 10)"><text x="29" y="14" font-family="Virgil, Segoe UI Emoji" font-size="16px" fill="#000000" text-anchor="middle" style="white-space: pre;" direction="ltr">STATE</text></g><g transform="translate(225.57477678571433 388.3470982142857) rotate(0 113.5 150.00000000000003)"><text x="0" y="14" font-family="Virgil, Segoe UI Emoji" font-size="16px" fill="#000000" text-anchor="start" style="white-space: pre;" direction="ltr">         HANDLERS:</text><text x="0" y="34" font-family="Virgil, Segoe UI Emoji" font-size="16px" fill="#000000" text-anchor="start" style="white-space: pre;" direction="ltr">0. Create a new log entry</text><text x="0" y="54" font-family="Virgil, Segoe UI Emoji" font-size="16px" fill="#000000" text-anchor="start" style="white-space: pre;" direction="ltr">1. Gather data</text><text x="0" y="74" font-family="Virgil, Segoe UI Emoji" font-size="16px" fill="#000000" text-anchor="start" style="white-space: pre;" direction="ltr">  - from event</text><text x="0" y="94" font-family="Virgil, Segoe UI Emoji" font-size="16px" fill="#000000" text-anchor="start" style="white-space: pre;" direction="ltr">  - from DOM</text><text x="0" y="114" font-family="Virgil, Segoe UI Emoji" font-size="16px" fill="#000000" text-anchor="start" style="white-space: pre;" direction="ltr">  - from state</text><text x="0" y="134" font-family="Virgil, Segoe UI Emoji" font-size="16px" fill="#000000" text-anchor="start" style="white-space: pre;" direction="ltr">3. call the core app</text><text x="0" y="154" font-family="Virgil, Segoe UI Emoji" font-size="16px" fill="#000000" text-anchor="start" style="white-space: pre;" direction="ltr">  - call app object methods</text><text x="0" y="174" font-family="Virgil, Segoe UI Emoji" font-size="16px" fill="#000000" text-anchor="start" style="white-space: pre;" direction="ltr">  - methods update state</text><text x="0" y="194" font-family="Virgil, Segoe UI Emoji" font-size="16px" fill="#000000" text-anchor="start" style="white-space: pre;" direction="ltr">  - no DOM happens here!</text><text x="0" y="214" font-family="Virgil, Segoe UI Emoji" font-size="16px" fill="#000000" text-anchor="start" style="white-space: pre;" direction="ltr">4. update UI</text><text x="0" y="234" font-family="Virgil, Segoe UI Emoji" font-size="16px" fill="#000000" text-anchor="start" style="white-space: pre;" direction="ltr">  - view functions are called</text><text x="0" y="254" font-family="Virgil, Segoe UI Emoji" font-size="16px" fill="#000000" text-anchor="start" style="white-space: pre;" direction="ltr">  - DOM is maniuplated</text><text x="0" y="274" font-family="Virgil, Segoe UI Emoji" font-size="16px" fill="#000000" text-anchor="start" style="white-space: pre;" direction="ltr"></text><text x="0" y="294" font-family="Virgil, Segoe UI Emoji" font-size="16px" fill="#000000" text-anchor="start" style="white-space: pre;" direction="ltr"></text></g><g transform="translate(808.1871279761901 259.2764136904764) rotate(0 101.5 50)"><text x="0" y="14" font-family="Virgil, Segoe UI Emoji" font-size="16px" fill="#000000" text-anchor="start" style="white-space: pre;" direction="ltr">Methods (different roles):</text><text x="0" y="34" font-family="Virgil, Segoe UI Emoji" font-size="16px" fill="#000000" text-anchor="start" style="white-space: pre;" direction="ltr">+ getters/setters</text><text x="0" y="54" font-family="Virgil, Segoe UI Emoji" font-size="16px" fill="#000000" text-anchor="start" style="white-space: pre;" direction="ltr">+ logic</text><text x="0" y="74" font-family="Virgil, Segoe UI Emoji" font-size="16px" fill="#000000" text-anchor="start" style="white-space: pre;" direction="ltr">+ views</text><text x="0" y="94" font-family="Virgil, Segoe UI Emoji" font-size="16px" fill="#000000" text-anchor="start" style="white-space: pre;" direction="ltr">+ handlers</text></g><g transform="translate(445.78013392857144 802.2650669642858) rotate(0 53.611328125 47.39453125)"><path d="M53.611328125 0 C62.53878918538186 -0.6718743169466883, 73.81020727216554 2.7134441514096084, 81.80331042094271 7.0820722331987085 C89.79641356971987 11.45070031498781, 97.36985573470955 18.780103449980754, 101.56994701766297 26.2117684907346 C105.77003830061639 33.64343353148844, 107.8520015750335 43.39835886087279, 107.0038581186632 51.67206247772178 C106.15571466229291 59.94576609457077, 102.12399163496956 69.21089474124888, 96.48108627944123 75.85399019182853 C90.8381809239129 82.49708564240818, 81.89767658918868 88.5034774525241, 73.14642598549327 91.53063518119971 C64.39517538179786 94.55779290987533, 53.21781393977731 95.51040109055104, 43.97358265726879 94.01693656388221 C34.72935137476028 92.52347203721338, 24.65555540252966 88.13760382886048, 17.68103829044216 82.56984802118671 C10.70652117835466 77.00209221351295, 4.74690598768977 68.58849105583347, 2.1264799847437885 60.610401717839665 C-0.4939460182021933 52.632312379845864, -0.558313112183344 42.7054342477582, 1.9584822727662683 34.701311993223904 C4.47527765771588 26.69718973868961, 10.325395158680728 18.22374265218736, 17.227252294441463 12.585668190633896 C24.1291094302022 6.94759372908043, 37.30561244890427 2.9704765890087543, 43.36962508733069 0.872865223903105 C49.43363772575711 -1.2247461412025444, 51.904377618721774 -0.01250423351614908, 53.61132812499999 0 C55.31827863127821 0.01250423351614908, 53.611328125 0.1579817708333332, 53.611328125 0.9478906249999994 M53.611328125 0 C62.53878918538186 -0.6718743169466883, 73.81020727216554 2.7134441514096084, 81.80331042094271 7.0820722331987085 C89.79641356971987 11.45070031498781, 97.36985573470955 18.780103449980754, 101.56994701766297 26.2117684907346 C105.77003830061639 33.64343353148844, 107.8520015750335 43.39835886087279, 107.0038581186632 51.67206247772178 C106.15571466229291 59.94576609457077, 102.12399163496956 69.21089474124888, 96.48108627944123 75.85399019182853 C90.8381809239129 82.49708564240818, 81.89767658918868 88.5034774525241, 73.14642598549327 91.53063518119971 C64.39517538179786 94.55779290987533, 53.21781393977731 95.51040109055104, 43.97358265726879 94.01693656388221 C34.72935137476028 92.52347203721338, 24.65555540252966 88.13760382886048, 17.68103829044216 82.56984802118671 C10.70652117835466 77.00209221351295, 4.74690598768977 68.58849105583347, 2.1264799847437885 60.610401717839665 C-0.4939460182021933 52.632312379845864, -0.558313112183344 42.7054342477582, 1.9584822727662683 34.701311993223904 C4.47527765771588 26.69718973868961, 10.325395158680728 18.22374265218736, 17.227252294441463 12.585668190633896 C24.1291094302022 6.94759372908043, 37.30561244890427 2.9704765890087543, 43.36962508733069 0.872865223903105 C49.43363772575711 -1.2247461412025444, 51.904377618721774 -0.01250423351614908, 53.61132812499999 0 C55.31827863127821 0.01250423351614908, 53.611328125 0.1579817708333332, 53.611328125 0.9478906249999994" stroke="#000000" stroke-width="1" fill="none"></path></g><g transform="translate(469.39146205357144 837.1595982142858) rotate(0 25 10)"><text x="25" y="14" font-family="Virgil, Segoe UI Emoji" font-size="16px" fill="#000000" text-anchor="middle" style="white-space: pre;" direction="ltr">VIEWS</text></g><g transform="translate(806.2325148809523 489.24516369047615) rotate(0 132 70)"><text x="0" y="14" font-family="Virgil, Segoe UI Emoji" font-size="16px" fill="#000000" text-anchor="start" style="white-space: pre;" direction="ltr">VIEWS (functions):</text><text x="0" y="34" font-family="Virgil, Segoe UI Emoji" font-size="16px" fill="#000000" text-anchor="start" style="white-space: pre;" direction="ltr">+ all arguments are js data</text><text x="0" y="54" font-family="Virgil, Segoe UI Emoji" font-size="16px" fill="#000000" text-anchor="start" style="white-space: pre;" direction="ltr">+ return value is a DOM element</text><text x="0" y="74" font-family="Virgil, Segoe UI Emoji" font-size="16px" fill="#000000" text-anchor="start" style="white-space: pre;" direction="ltr">- does not use script variables</text><text x="0" y="94" font-family="Virgil, Segoe UI Emoji" font-size="16px" fill="#000000" text-anchor="start" style="white-space: pre;" direction="ltr">- does not read from the UI</text><text x="0" y="114" font-family="Virgil, Segoe UI Emoji" font-size="16px" fill="#000000" text-anchor="start" style="white-space: pre;" direction="ltr">- does not write to the UI</text><text x="0" y="134" font-family="Virgil, Segoe UI Emoji" font-size="16px" fill="#000000" text-anchor="start" style="white-space: pre;" direction="ltr"></text></g><g><g transform="translate(422.9588214320927 365.5697544642858) rotate(0 4.944417408953655 -45.28683035714289)"><path d="M0 0 C3.2229584731661878 -29.51967068113717, 6.4459169463323756 -59.03934136227434, 9.88883481790731 -90.57366071428578 M0 0 C2.5259560255315856 -23.13569679831294, 5.051912051063171 -46.27139359662588, 9.88883481790731 -90.57366071428578" stroke="#000000" stroke-width="1" fill="none"></path></g><g transform="translate(422.9588214320927 365.5697544642858) rotate(0 4.944417408953655 -45.28683035714289)"><path d="M17.02913798848388 -61.435780375588294 C14.701978011768322 -70.93236718859171, 12.374818035052765 -80.42895400159512, 9.88883481790731 -90.57366071428578 M17.02913798848388 -61.435780375588294 C15.205253562264188 -68.87861927097262, 13.381369136044498 -76.32145816635693, 9.88883481790731 -90.57366071428578" stroke="#000000" stroke-width="1" fill="none"></path></g><g transform="translate(422.9588214320927 365.5697544642858) rotate(0 4.944417408953655 -45.28683035714289)"><path d="M-3.370844070331458 -63.66305098910871 C0.9507362989678736 -72.43372814459812, 5.272316668267205 -81.20440530008752, 9.88883481790731 -90.57366071428578 M-3.370844070331458 -63.66305098910871 C0.016144022917791823 -70.53696667662192, 3.4031321161670416 -77.41088236413513, 9.88883481790731 -90.57366071428578" stroke="#000000" stroke-width="1" fill="none"></path></g></g><g transform="translate(473.21875 298.83203125) rotate(0 75 10)"><text x="0" y="14" font-family="Virgil, Segoe UI Emoji" font-size="16px" fill="#000000" text-anchor="start" style="white-space: pre;" direction="ltr">handler updates UI</text></g><g><g transform="translate(104.47433035714289 730.8331473214284) rotate(0 237.34765625 -0.060546875)"><path d="M0 0 C79.11588541666667 -0.020182291666666668, 395.5794270833333 -0.10091145833333333, 474.6953125 -0.12109375 M0 0 C79.11588541666667 -0.020182291666666668, 395.5794270833333 -0.10091145833333333, 474.6953125 -0.12109375" stroke="#000000" stroke-width="1" fill="none"></path></g></g><g transform="translate(288.3415178571429 745.0987723214284) rotate(0 31.5 10)"><text x="0" y="14" font-family="Virgil, Segoe UI Emoji" font-size="16px" fill="#000000" text-anchor="start" style="white-space: pre;" direction="ltr">"isolate"</text></g><g transform="translate(285.5485491071429 698.6222098214284) rotate(0 41.5 10)"><text x="0" y="14" font-family="Virgil, Segoe UI Emoji" font-size="16px" fill="#000000" text-anchor="start" style="white-space: pre;" direction="ltr">"integrate"</text></g><g transform="translate(398.40569196428555 917.9827008928582) rotate(0 121 12.5)"><text x="0" y="18" font-family="Virgil, Segoe UI Emoji" font-size="20px" fill="#000000" text-anchor="start" style="white-space: pre;" direction="ltr">js data -&gt; DOM element</text></g><g><g transform="translate(754.5301339285716 50.434709821428555) rotate(0 3.295674000879899 454.35469644750344)"><path d="M0.6031064506620167 0.5514799062162639 C1.6642178594178934 151.8925464262033, 5.914008636329064 756.4721565656188, 7.130749393839824 907.797516832554 M-0.5394013920798897 -0.20459708835929624 C0.2694050299606702 151.29245569657184, 4.698408363949249 757.251408519541, 6.0181442369785785 908.9139899833662" stroke="#000000" stroke-width="1" fill="none"></path></g></g><g><g transform="translate(777.6160714285716 124.31305803571428) rotate(0 209.85327386733672 -3.1134667512029495)"><path d="M-0.3178099159151315 -0.2024511393159628 C69.79093507263984 -1.1385475890090069, 350.18068643827866 -5.312132785345117, 420.0243576505885 -6.024482363089919 M1.716201148889959 -1.3543419327959418 C71.74647690512415 -2.0887517391269403, 349.3242326369224 -3.903578053178886, 419.22386557852036 -4.717293164990842" stroke="#000000" stroke-width="1" fill="none"></path></g></g><g transform="translate(859.0279017857144 50.99386160714283) rotate(0 70 17.5)"><text x="0" y="25" font-family="Virgil, Segoe UI Emoji" font-size="28px" fill="#000000" text-anchor="start" style="white-space: pre;" direction="ltr">Checklists</text></g><g transform="translate(809.1060267857142 156.57310267857144) rotate(0 92.5 40)"><text x="0" y="14" font-family="Virgil, Segoe UI Emoji" font-size="16px" fill="#000000" text-anchor="start" style="white-space: pre;" direction="ltr">STATE (data):</text><text x="0" y="34" font-family="Virgil, Segoe UI Emoji" font-size="16px" fill="#000000" text-anchor="start" style="white-space: pre;" direction="ltr">+ contains only js data</text><text x="0" y="54" font-family="Virgil, Segoe UI Emoji" font-size="16px" fill="#000000" text-anchor="start" style="white-space: pre;" direction="ltr">- has no functions</text><text x="0" y="74" font-family="Virgil, Segoe UI Emoji" font-size="16px" fill="#000000" text-anchor="start" style="white-space: pre;" direction="ltr">- has no DOM element</text></g><g transform="translate(60.99888392857139 275.0552455357142) rotate(0 60.59988839285717 22.472098214285722)"><path d="M1.286997178569436 0.6408067252486944 C29.734112012988472 -0.5640399732134811, 60.35369121813505 -1.953436342670726, 119.29596286666185 0.9983134176582098 M-0.6674241470173001 0.7689993279054761 C46.34359435251673 0.3772568629238128, 91.00884392352293 1.0849550590965271, 121.55417410776556 -0.8868672652170062 M121.69612222564012 -0.9092693421989679 C121.74668766389114 12.336342465823698, 121.55657143721801 28.8551380964782, 121.3354293073395 45.02706779672633 M121.52536289141119 0.36690809298306704 C120.19761779632552 13.39833519330777, 121.27603667702658 27.877170016105616, 122.19534243390501 45.893600240748924 M121.5606466497162 44.49340166284571 C76.3881408466857 46.20212723117258, 31.486854297195222 47.00191314320948, 1.7478366289287806 46.76611144973765 M120.87765945241392 44.018400684398216 C75.69397580447188 43.869820622991874, 27.407137974095747 44.41929852802689, 0.8941831244155765 44.05779509286265 M-0.887923201546073 44.0033345980836 C0.028634894713364556 28.45912261683823, 1.6838212498273477 14.1342614504122, -1.7478646244853735 0.8267114665359259 M0.7283022059127688 44.81997804383616 C0.09502982712490077 34.88041640942124, -0.6157492139269638 25.451311813885706, 0.7045161081478 -0.30294359754770994" stroke="#000000" stroke-width="1" fill="none"></path></g><g transform="translate(76.1328125 329.9748883928571) rotate(0 55.5 30)"><text x="0" y="14" font-family="Virgil, Segoe UI Emoji" font-size="16px" fill="#000000" text-anchor="start" style="white-space: pre;" direction="ltr">call handlers</text><text x="0" y="34" font-family="Virgil, Segoe UI Emoji" font-size="16px" fill="#000000" text-anchor="start" style="white-space: pre;" direction="ltr">when an event</text><text x="0" y="54" font-family="Virgil, Segoe UI Emoji" font-size="16px" fill="#000000" text-anchor="start" style="white-space: pre;" direction="ltr">is triggered</text></g><g transform="translate(805.8381696428571 621.5524553571429) rotate(0 126.5 60)"><text x="0" y="14" font-family="Virgil, Segoe UI Emoji" font-size="16px" fill="#000000" text-anchor="start" style="white-space: pre;" direction="ltr">HANLDERS (functions):</text><text x="0" y="34" font-family="Virgil, Segoe UI Emoji" font-size="16px" fill="#000000" text-anchor="start" style="white-space: pre;" direction="ltr">+ read and update the DOM</text><text x="0" y="54" font-family="Virgil, Segoe UI Emoji" font-size="16px" fill="#000000" text-anchor="start" style="white-space: pre;" direction="ltr">+ read &amp; update State</text><text x="0" y="74" font-family="Virgil, Segoe UI Emoji" font-size="16px" fill="#000000" text-anchor="start" style="white-space: pre;" direction="ltr">+ call Logic functions</text><text x="0" y="94" font-family="Virgil, Segoe UI Emoji" font-size="16px" fill="#000000" text-anchor="start" style="white-space: pre;" direction="ltr">+ call View functions</text><text x="0" y="114" font-family="Virgil, Segoe UI Emoji" font-size="16px" fill="#000000" text-anchor="start" style="white-space: pre;" direction="ltr">- use any other script variables</text></g><g transform="translate(805.1830357142858 872.9012276785713) rotate(0 213.5 70)"><text x="0" y="14" font-family="Virgil, Segoe UI Emoji" font-size="16px" fill="#000000" text-anchor="start" style="white-space: pre;" direction="ltr">Code Smells:</text><text x="0" y="34" font-family="Virgil, Segoe UI Emoji" font-size="16px" fill="#000000" text-anchor="start" style="white-space: pre;" direction="ltr">- querying the DOM outside of handlers or listeners</text><text x="0" y="54" font-family="Virgil, Segoe UI Emoji" font-size="16px" fill="#000000" text-anchor="start" style="white-space: pre;" direction="ltr">- variables storing DOM elements outside of handlers</text><text x="0" y="74" font-family="Virgil, Segoe UI Emoji" font-size="16px" fill="#000000" text-anchor="start" style="white-space: pre;" direction="ltr">- functions that do not fit in these 4 categories</text><text x="0" y="94" font-family="Virgil, Segoe UI Emoji" font-size="16px" fill="#000000" text-anchor="start" style="white-space: pre;" direction="ltr">- functions over 30 lines long</text><text x="0" y="114" font-family="Virgil, Segoe UI Emoji" font-size="16px" fill="#000000" text-anchor="start" style="white-space: pre;" direction="ltr">- DOM elements saved in state</text><text x="0" y="134" font-family="Virgil, Segoe UI Emoji" font-size="16px" fill="#000000" text-anchor="start" style="white-space: pre;" direction="ltr">- modifying state directly without using a method</text></g><g transform="translate(806.08984375 757.3515625) rotate(0 176 50)"><text x="0" y="14" font-family="Virgil, Segoe UI Emoji" font-size="16px" fill="#000000" text-anchor="start" style="white-space: pre;" direction="ltr">LISTENERS (query + method call):</text><text x="0" y="34" font-family="Virgil, Segoe UI Emoji" font-size="16px" fill="#000000" text-anchor="start" style="white-space: pre;" direction="ltr">+ query the DOM</text><text x="0" y="54" font-family="Virgil, Segoe UI Emoji" font-size="16px" fill="#000000" text-anchor="start" style="white-space: pre;" direction="ltr">+ add event listeners</text><text x="0" y="74" font-family="Virgil, Segoe UI Emoji" font-size="16px" fill="#000000" text-anchor="start" style="white-space: pre;" direction="ltr">+ use handlers as callbacks</text><text x="0" y="94" font-family="Virgil, Segoe UI Emoji" font-size="16px" fill="#000000" text-anchor="start" style="white-space: pre;" direction="ltr">- store DOM elements in variables for later</text></g><g transform="translate(10 771.72265625) rotate(0 134.39453125 134.837890625)"><path d="M182.52556432817252 8.437927465031024 C196.3784856977962 11.636395463541241, 209.74206917206618 21.815535489809342, 221.12555413060346 31.738268324212214 C232.50903908914074 41.661001158615086, 243.35053692603896 54.81892923793747, 250.82647407939618 67.97432447144824 C258.3024112327534 81.12971970495902, 263.2973614953478 96.17945701411008, 265.98117705074674 110.67063972527686 C268.6649926061457 125.16182243644363, 269.0746257090057 140.10973541963634, 266.92936741178994 154.9214207384489 C264.78410911457416 169.73310605726144, 260.1020206170201 186.31935526603712, 253.1096272674522 199.5407516381522 C246.1172339178843 212.76214801026725, 236.0414258419161 224.20104627660115, 224.9750073143826 234.24979897113928 C213.9085887868491 244.29855166567742, 200.57725314348818 254.00808769608713, 186.71111610225125 259.833267805381 C172.84497906101433 265.65844791467487, 156.67692462424785 268.2896769552998, 141.778185066961 269.2008796269025 C126.87944550967411 270.11208229850524, 111.700481793601 269.52623881775685, 97.31867875853004 265.30048383499746 C82.93687572345908 261.0747288522381, 67.74554247210047 252.58855005708952, 55.487366856535274 243.84634973034613 C43.22919124097008 235.10414940360275, 32.291673611384724 224.997998395882, 23.769625065138882 212.8472818745372 C15.24757651889304 200.6965653531924, 8.212119565251575 185.32132704292505, 4.3550755790602125 170.94205060227733 C0.49803159286885057 156.56277416162962, -0.44972473005245206 141.3892467171158, 0.6273611479907117 126.57162323065084 C1.7044470260338755 111.75399974418588, 5.113765444072759 96.04840146453405, 10.817590847319195 82.0363096834875 C16.521416250565633 68.02421790244095, 24.58842880763531 53.50472473435274, 34.85031356746933 42.49907254437154 C45.112198327303346 31.493420354390345, 59.18654366896735 22.99148117427533, 72.3888994063233 16.002396543600298 C85.59125514367926 9.013311912925268, 99.48736550671443 2.829610010236024, 114.06444799160504 0.5645647603213604 C128.64153047649566 -1.7004804895933034, 147.8290102674846 0.647463135671579, 159.851394315667 2.412125044112315 C171.8737783638494 4.176786952553051, 181.18684479726218 9.224454417199278, 186.1987522806994 11.152536210965778 C191.21065976413664 13.080618004732278, 190.83636097987034 12.102353453028861, 189.92283921629038 13.980615806711313 M159.68839785502803 3.222284187774221 C173.76297202087696 3.39075307365678, 188.45523710431502 9.822845313793561, 201.50774758054928 17.044406443290967 C214.56025805678354 24.265967572788373, 228.3646745237678 34.87906760300085, 238.00346071243368 46.55165096475865 C247.64224690109955 58.22423432651645, 254.14468801781197 73.14509301776339, 259.3404647125445 87.07990661383776 C264.536241407277 101.01472020991214, 268.7578550059868 115.10875613852764, 269.1781208808286 130.1605325412049 C269.5983867556704 145.21230894388216, 266.7368665538102 162.9382532675961, 261.86205996159504 177.39056502990138 C256.98725336937986 191.84287679220665, 248.75404978220513 204.91107963900285, 239.92928132753758 216.8744031150365 C231.10451287287003 228.83772659107015, 220.99164180815387 240.87022935092196, 208.91344923358983 249.1705058861033 C196.8352566590258 257.47078242128464, 182.31513816196713 263.13953420938634, 167.46012588015333 266.67606232612457 C152.60511359833953 270.2125904428628, 134.77451643613398 271.834681708296, 119.78337554270708 270.3896745865328 C104.79223464928018 268.9446674647696, 90.97778288014081 264.5183599409761, 77.51328051959187 258.00601959554564 C64.04877815904294 251.4936792501152, 49.89586318811029 242.16576916865918, 38.99636137941344 231.31563251395016 C28.096859570716596 220.46549585924114, 18.66569535456508 206.42838522433792, 12.116269667410776 192.90519966729147 C5.566843980256472 179.38201411024502, 0.9585876962341213 164.70688821416672, -0.30019274351238323 150.17651917167143 C-1.5589731832588878 135.64615012917614, 0.9734555297184335 120.56595255927422, 4.5635870289317495 105.72298541231967 C8.153718528145065 90.88001826536512, 13.600295881917361 74.04164495394168, 21.240596251767514 61.11871628994416 C28.880896621617666 48.19578762594663, 38.77982800969744 37.404434946812565, 50.40538924803266 28.1854134283345 C62.030950486367885 18.966391909856434, 76.56283641230021 10.445889391624217, 90.99396368177887 5.804587179075753 C105.42509095125752 1.1632849665272902, 125.44791136825832 0.8586955264011825, 136.99215286490454 0.3376001530437236 C148.53639436155078 -0.18349522031373533, 156.41608582195929 2.074839971044019, 160.25941266165623 2.6780149389309997 C164.10273950135317 3.2811899068179806, 160.64756179101659 1.990806616145446, 160.05211390308625 3.95664996036561" stroke="#000000" stroke-width="1" fill="none"></path></g><g transform="translate(83.9296875 809.046875) rotate(0 59 10)"><text x="0" y="14" font-family="Virgil, Segoe UI Emoji" font-size="16px" fill="#000000" text-anchor="start" style="white-space: pre;" direction="ltr">object methods</text></g><g><g transform="translate(168.05859375 562.8984375) rotate(0 -36.07253988798709 100.91971344338731)"><path d="M-0.6962629292160273 0.29214381314814086 C-7.144331385071079 4.440909150615335, -27.250517071659367 15.178975597396494, -37.68927677609027 26.087928846850993 C-48.12803648052117 36.99688209630549, -57.70227140722175 50.978907207027085, -63.328821155801414 65.74586330987513 C-68.95537090438107 80.51281941272319, -70.01864709593356 99.16363635795811, -71.44857526756823 114.6896654639393 C-72.8785034392029 130.2156945699205, -71.80454729534686 144.27706360357504, -71.90839018560946 158.9020379457623 C-72.01223307587206 173.52701228794953, -72.14430224634707 195.23470408059657, -72.07163260914385 202.43951151706278 M1.139060303606093 -0.6000846302881837 C-5.582978271010021 3.7070779919251797, -27.905042168858152 13.54800871487707, -38.80846989091486 24.317083148919046 C-49.71189761297156 35.08615758296102, -58.894657502335804 48.81970995660871, -64.28150602873414 64.01436197396367 C-69.66835455513248 79.20901399131864, -69.62912204083054 99.69757123506318, -71.1295610493049 115.48499525304884 C-72.63000005777926 131.2724192710345, -73.36409455712885 144.36119012511026, -73.28414007958025 158.73890608187764 C-73.20418560203166 173.11662203864503, -71.11298121985047 194.71197409745307, -70.6498341840133 201.75129099365324" stroke="#000000" stroke-width="1" fill="none"></path></g><g transform="translate(168.05859375 562.8984375) rotate(0 -36.07253988798709 100.91971344338731)"><path d="M-82.59391437122814 173.90465810868903 C-76.92793413381862 184.3907999729684, -71.34049983279459 195.67764240796248, -71.62929799411445 202.0537136009708 M-82.56626123680017 174.74911008097246 C-80.78251093674163 179.6247915758015, -77.55675530072229 185.62209580518848, -70.17721082367002 201.75351812399924" stroke="#000000" stroke-width="1" fill="none"></path></g><g transform="translate(168.05859375 562.8984375) rotate(0 -36.07253988798709 100.91971344338731)"><path d="M-62.1353885438014 172.30193437879907 C-64.29440175771069 183.2836337281694, -66.54792586375467 195.18473792425485, -71.62929799411445 202.0537136009708 M-62.10773540937343 173.1463863510825 C-64.66266564877044 178.4762031362269, -65.77583378076999 184.81341925094947, -70.17721082367002 201.75351812399924" stroke="#000000" stroke-width="1" fill="none"></path></g></g><g><g transform="translate(151.97265625 570.29296875) rotate(0 35.63867562739176 -13.846915171127762)"><path d="M-1.066907987371087 0.8845416102558372 C10.660993125662205 -3.6768728262434403, 58.02454124949872 -22.14955378038188, 69.99556865952908 -26.761485871300103 M0.5738265899196269 0.30332201030105344 C12.72569824848324 -4.665889132159451, 60.768025286532946 -23.72160210185995, 72.34425924215466 -28.57837195251137" stroke="#000000" stroke-width="1" fill="none"></path></g><g transform="translate(151.97265625 570.29296875) rotate(0 35.63867562739176 -13.846915171127762)"><path d="M51.5647306836039 -9.612695202395802 C56.945729737198675 -13.554280691016245, 62.8896843593219 -19.718538685821795, 73.31158058401198 -27.009879158101977 M49.148922608496264 -9.084288722999876 C57.38963654003759 -14.856552226450715, 66.04212292191065 -22.409045715107517, 72.46386327557266 -29.17207483224571" stroke="#000000" stroke-width="1" fill="none"></path></g><g transform="translate(151.97265625 570.29296875) rotate(0 35.63867562739176 -13.846915171127762)"><path d="M43.83894572262262 -28.62406677633846 C51.39445118979871 -27.382647506935157, 59.41674625250239 -28.432589924413485, 73.31158058401198 -27.009879158101977 M41.423137647514984 -28.095660296942533 C52.11906478779906 -27.469455481557535, 63.36574573594848 -28.638235589157617, 72.46386327557266 -29.17207483224571" stroke="#000000" stroke-width="1" fill="none"></path></g></g><g><g transform="translate(517.879941734653 652.447970822081) rotate(0 -26.739637258062146 -15.568365167519062)"><path d="M-0.5536767449229956 -0.13015417791903028 C-9.49434447101939 -4.990376808059709, -45.053119699268954 -24.183084566953266, -54.16476406415929 -29.056638419628122 M1.356504234652966 -1.2440890666656197 C-7.650446684674057 -6.490332132497177, -45.23168315142708 -26.539483691720893, -54.835778750777294 -31.006576157119103" stroke="#000000" stroke-width="1" fill="none"></path></g><g transform="translate(517.879941734653 652.447970822081) rotate(0 -26.739637258062146 -15.568365167519062)"><path d="M-25.26305837245061 -26.580691251273645 C-32.14530255599105 -29.39279572616348, -40.31416165540219 -27.614992256335583, -54.67261208437388 -30.78842219797892 M-25.802499264156065 -27.931974765214516 C-31.034290946073074 -28.570349036736616, -38.43503823295494 -28.412193012707615, -55.27175379294907 -31.957836830932624" stroke="#000000" stroke-width="1" fill="none"></path></g><g transform="translate(517.879941734653 652.447970822081) rotate(0 -26.739637258062146 -15.568365167519062)"><path d="M-34.51210732421461 -8.261982348250129 C-39.036995620369794 -15.732057228554904, -44.83251616170376 -18.654899025118997, -54.67261208437388 -30.78842219797892 M-35.051548215920064 -9.613265862191 C-38.262352264045916 -14.446140264183562, -43.57754923520843 -18.418634789796762, -55.27175379294907 -31.957836830932624" stroke="#000000" stroke-width="1" fill="none"></path></g></g><g><g transform="translate(519.2890625 651.91796875) rotate(0 20.849724792586983 75.76494144933298)"><path d="M0.015749194845557257 -0.5706156101077795 C6.93158836228152 8.115898191307982, 34.330264888828 30.42959965802729, 40.582634487375614 52.033715108409524 C46.83500408592323 73.63783055879176, 39.932175968711576 112.52868567643067, 37.52996678613126 129.05407709218562 C35.12775760355095 145.5794685079406, 27.85360469284157 147.31788336373864, 26.169379391893745 151.18606360293924 M-1.4351212071999908 1.744207249246538 C5.456246609327693 10.644141357106466, 33.62289641463508 32.66598189171404, 39.95687837962061 53.58063766654581 C46.290860344606145 74.49529344137758, 38.92897826158752 110.81216509119919, 36.568770582713185 127.23214189823717 C34.20856290383885 143.65211870527517, 27.558434983926517 147.8008643251285, 25.79563230637461 152.10049850877374" stroke="#000000" stroke-width="1" fill="none"></path></g><g transform="translate(519.2890625 651.91796875) rotate(0 20.849724792586983 75.76494144933298)"><path d="M31.364516690421617 123.8406960201562 C30.86461875684935 128.75618456834394, 31.026854744719397 133.96490960038238, 25.194279977940024 152.2222526428476 M33.021098068963504 122.68041961557424 C30.035197133412748 133.8115961758559, 27.267927209389835 144.12057828147385, 26.2471219458431 151.95688529230654" stroke="#000000" stroke-width="1" fill="none"></path></g><g transform="translate(519.2890625 651.91796875) rotate(0 20.849724792586983 75.76494144933298)"><path d="M48.661860550744805 134.88252094919665 C44.29579004282002 137.32727941037297, 40.583998329679766 140.06300419507693, 25.194279977940024 152.2222526428476 M50.31844192928669 133.72224454461468 C41.21003283229732 140.9872596482059, 32.22107621061615 147.32460449936286, 26.2471219458431 151.95688529230654" stroke="#000000" stroke-width="1" fill="none"></path></g></g><g transform="translate(798.6197916666667 150.28645833333331) rotate(0 155.244140625 106.76236979166669)"><path d="M1.4066988660529884 0.8220446500688632 C104.87933802582317 -2.921279345336635, 212.81401089113095 -3.017675773680928, 311.4823045240617 0.17857554417559823 M-0.2681102734963193 -0.06765069083032253 C66.62900299607871 0.03871983205060148, 132.6577922458595 -0.6644653572563772, 310.18403807552784 -0.5205581656085111 M308.7601824309505 -1.4512028431557509 C309.57512149950156 64.39867370626799, 308.6405748925087 127.61349430480047, 310.81138569988633 212.8868228717652 M311.33688856760216 -0.618160248733516 C309.41021686232943 81.29931335045254, 308.65746293404226 162.85859262141864, 309.6977929259906 213.5806164755267 M309.7277890589395 213.51560405767364 C216.92320479171892 215.2742183952099, 124.40173391121785 215.43235545975548, 0.975893326304203 214.70665748852488 M311.1681297667786 213.3694520794229 C233.29785451720102 215.66509358393387, 155.2821014232066 215.78631265544445, -0.30479198373019134 213.71347077138995 M1.1133513202163616 215.2146308473379 C-1.1681484371285655 167.70721223157557, 0.5090899611153389 121.61953551727966, 1.0773992886088306 0.052958524370588136 M0.8117186116043955 213.4367091641172 C-2.581331737219372 134.5354735062143, -0.9425202881615079 54.52623206209346, 0.8616618442857147 -0.45853490300880695" stroke="#000000" stroke-width="1" fill="none"></path></g><g transform="translate(1171.8619791666667 217.06380208333331) rotate(0 101 10)"><text x="0" y="14" font-family="Virgil, Segoe UI Emoji" font-size="16px" fill="#000000" text-anchor="start" style="white-space: pre;" direction="ltr">encapsulated in an object</text></g><g><g transform="translate(1245.44921875 257.72916666666663) rotate(0 -52.31453083726069 38.17019422033917)"><path d="M0.02202012799680242 -0.2664014663547277 C0.47463416386810886 4.724491437979877, 6.283580024995801 18.659225110916662, 2.671015507603761 28.94217170414829 C-0.9415490097882788 39.22511829737992, -11.18655462401601 53.472308355611254, -21.653366976355436 61.43127809303504 C-32.12017932869486 69.39024783045883, -45.80432886213412 75.21997536647028, -60.1298586064328 76.69599012869102 C-74.45538835073148 78.17200489091177, -99.36191054953339 71.06799748824518, -107.60654544214749 70.28736666635947 M-1.4255580341443421 -1.4518661815300584 C-1.1502602359611003 3.3069172822394366, 5.021119314999279 16.738292868828644, 1.583749279218491 27.334061318797406 C-1.853620756562297 37.92982976876617, -11.796812454822089 53.736557515491235, -22.04977824882907 62.12274451828253 C-32.30274404283605 70.50893152107383, -45.533132295500245 76.31944335049845, -59.93404548482341 77.65118333554518 C-74.33495867414658 78.98292332059192, -100.3428535261944 71.16957108383608, -108.45525738476806 70.11318442856299" stroke="#000000" stroke-width="1" fill="none"></path></g><g transform="translate(1245.44921875 257.72916666666663) rotate(0 -52.31453083726069 38.17019422033917)"><path d="M-79.2141745345327 65.3358116802637 C-85.96822138994504 68.24005192115956, -98.38383401928724 68.19001717371037, -108.92721828139418 72.08874338937329 M-78.37438576329825 64.77958793853117 C-84.88596076506637 66.5779859935339, -90.60068089578576 67.94358196676633, -107.69863428334736 71.06691310719924" stroke="#000000" stroke-width="1" fill="none"></path></g><g transform="translate(1245.44921875 257.72916666666663) rotate(0 -52.31453083726069 38.17019422033917)"><path d="M-83.37242246421512 85.43130810461538 C-88.72647761175114 82.3809396964703, -99.9100944922719 76.37705934291061, -108.92721828139418 72.08874338937329 M-82.53263369298067 84.87508436288284 C-88.03466586892714 82.42431724090125, -92.87478227933039 79.56323019004581, -107.69863428334736 71.06691310719924" stroke="#000000" stroke-width="1" fill="none"></path></g></g><g transform="translate(803.2890625 378.8203125) rotate(0 78.5 50)"><text x="0" y="14" font-family="Virgil, Segoe UI Emoji" font-size="16px" fill="#000000" text-anchor="start" style="white-space: pre;" direction="ltr">LOGIC (functions):</text><text x="0" y="34" font-family="Virgil, Segoe UI Emoji" font-size="16px" fill="#000000" text-anchor="start" style="white-space: pre;" direction="ltr">+ JS data in</text><text x="0" y="54" font-family="Virgil, Segoe UI Emoji" font-size="16px" fill="#000000" text-anchor="start" style="white-space: pre;" direction="ltr">+ JS data out</text><text x="0" y="74" font-family="Virgil, Segoe UI Emoji" font-size="16px" fill="#000000" text-anchor="start" style="white-space: pre;" direction="ltr">- using shared data</text><text x="0" y="94" font-family="Virgil, Segoe UI Emoji" font-size="16px" fill="#000000" text-anchor="start" style="white-space: pre;" direction="ltr">- using the DOM</text></g></svg>